# xmcd
#
# Track frame offsets:
#	150
#	17950
#	30906
#	44001
#	62464
#	77446
#	90576
#	109067
#	121738
#	134617
#	149861
#	168184
#	184273
#	200632
#	219992
#	229652
#	242877
#	257872
#	273773
#	285283
#	300103
#	316530
#	328558
#
# Disc length: 4542 seconds
#
# Revision: 1
# Processed by: cddbd v1.5.2PL0 Copyright (c) Steve Scherf et al.
# Submitted via: audiograbber 1.83.01
#
DISCID=3711bc17
DTITLE=Design - Day of the Fox - In flight
DYEAR=1974
DGENRE=Folk-Rock
TTITLE0=Nature's children
TTITLE1=Day of the Fox
TTITLE2=I feel the earth move
TTITLE3=Can this be love
TTITLE4=Pisces hymn
TTITLE5=Meet my friends
TTITLE6=If you think about me
TTITLE7=Fallen angel
TTITLE8=Yellow bird (Have you no home)
TTITLE9=You'd better believe it
TTITLE10=When morning comes
TTITLE11=Wherever you may go
TTITLE12=A famous myth
TTITLE13=Teach me how to fly
TTITLE14=Archie Franks
TTITLE15=Dirty work
TTITLE16=Don't apologize
TTITLE17=Second love
TTITLE18=End of the party
TTITLE19=I'll be back again
TTITLE20=I am the greene manne
TTITLE21=Losing you
TTITLE22=After the rain
EXTD=
EXTT0=
EXTT1=
EXTT2=
EXTT3=
EXTT4=
EXTT5=
EXTT6=
EXTT7=
EXTT8=
EXTT9=
EXTT10=
EXTT11=
EXTT12=
EXTT13=
EXTT14=
EXTT15=
EXTT16=
EXTT17=
EXTT18=
EXTT19=
EXTT20=
EXTT21=
EXTT22=
PLAYORDER=
